<svg width="1136" height="1136" viewBox="0 0 1136 1136" fill="none" xmlns="http://www.w3.org/2000/svg">
<g clip-path="url(#clip0_1952_33)">
<path d="M568 0H1136V1136H0V0H568Z" fill="#DFFC03"/>
<path fill-rule="evenodd" clip-rule="evenodd" d="M785.933 814.977C777.249 811.881 768.879 808.305 761.253 803.045C739.27 786.682 724.936 762.057 711.392 738.726C692.314 704.793 678.723 668.635 669.328 630.915C665.291 614.709 663.92 595.919 654.748 581.551C633.956 551.466 572.987 555.364 540.612 560.645C518.932 564.481 514.451 588.743 509.527 606.696C505.427 621.613 502.743 636.699 500.49 651.987C495.13 655.511 489.079 658.373 483.311 660.866C420.452 680.141 409.404 715.875 385.395 771.073C344.844 851.302 234.809 882.715 218.188 977.66C207.479 1040.35 237.932 1099.32 269.329 1151.43C298.569 1208.36 339.39 1235.68 404.399 1222.23C465.374 1208.55 523.974 1185.67 583.876 1167.99C612.889 1160.85 641.856 1142.3 672.375 1148.77C735.26 1162.89 799.871 1169.53 864.317 1167.7C954.801 1171.36 954.787 1084.51 945.5 1017.26C938.995 912.599 886.205 845.395 785.933 814.977Z" fill="white"/>
<path fill-rule="evenodd" clip-rule="evenodd" d="M791.983 966.42C799.544 971.42 805.903 979 811.008 986.98C789.696 984.76 768.421 982.21 747.193 979.3C749.972 977.52 752.777 975.79 755.646 974.15C766.113 968.25 780.295 958.69 791.983 966.42ZM437.898 1029.42C433.993 1027.89 432.482 1021.94 430.96 1018.52C426.188 1007.82 421.833 996.94 417.302 986.13C434.506 981.23 451.236 975.78 469.058 973.17C488.221 970.36 507.667 969.68 527.007 970.31C566.181 971.59 604.991 977.99 643.505 984.86C681.974 991.72 720.441 998.3 759.179 1003.47C797.132 1008.54 835.205 1012.25 873.349 1015.5C880.76 1016.13 893.117 1018.8 899.077 1012.97C903.796 1008.35 903.949 999.83 898.044 996.07C894.366 993.73 889.037 993.7 884.835 993.16C879.543 992.48 874.23 992.02 868.906 991.67C866.737 991.53 864.568 991.4 862.398 991.26C879.815 984.7 898.006 981.12 916.888 982.11C917.956 988.6 922.767 995.27 925.4 1000.62C929.998 1009.96 933.582 1019.42 935.935 1029.57C940.853 1050.8 941.067 1072.83 939.678 1094.48C938.402 1112.54 935.661 1132.5 921.501 1145.29C910.78 1154.97 895.654 1158.55 881.621 1159.68C865.311 1160.99 848.749 1159.59 832.576 1157.41C809.892 1154.34 787.102 1150.28 764.864 1144.85C721.793 1134.32 680.509 1117.57 642.42 1094.85C623.845 1083.78 606.121 1071.32 587.291 1060.67C568.104 1049.81 547.688 1041.38 526.25 1036.15C502.259 1030.3 477.179 1027.8 452.521 1029.25C448.242 1029.5 442.06 1031.05 437.898 1029.42ZM410.096 1018.55C412.617 1026.73 414.546 1036.07 419.927 1042.95C425.257 1049.76 433.298 1052.16 441.628 1052.77C451.672 1053.5 461.834 1053.03 471.9 1053.41C492.545 1054.17 512.907 1057.53 532.643 1063.68C551.035 1069.41 568.108 1078.35 584.554 1088.27C599.762 1097.45 614.524 1107.3 629.737 1116.44C625.688 1118.3 621.685 1120.31 617.66 1122.05C609.218 1125.72 600.724 1129.26 592.192 1132.71C575.367 1139.51 558.471 1146.14 541.402 1152.3C506.984 1164.73 472 1175.59 436.595 1184.84C419.709 1189.25 402.583 1194.41 385.04 1195.14C369.484 1195.79 355.075 1191.39 342.529 1182.15C316.507 1162.96 295.804 1135.27 279.068 1107.96C269.125 1091.73 260.448 1074.68 253.271 1057.05C249.641 1048.14 246.349 1039.09 243.386 1029.93C241.996 1025.63 240.678 1021.3 239.43 1016.96C238.881 1015.05 238.355 1013.13 237.834 1011.22C264.443 1003.1 291.368 995.77 318.925 991.7C333.638 989.52 348.547 988.42 363.421 988.58C370.804 988.66 378.183 989.06 385.527 989.82C389.48 990.23 393.417 990.76 397.337 991.42C398.957 991.68 400.622 992.08 402.292 992.38C404.843 1001.12 407.415 1009.85 410.096 1018.55ZM960.138 983.8C961.572 980.9 962.177 978.04 962.691 974.89C963.083 972.48 964.123 969.09 963.212 965.96C962.192 962.45 959.413 959.32 957.418 956.333C955.215 953.031 953.014 949.727 950.816 946.421C946.419 939.81 942.032 933.193 937.652 926.571C919.765 899.53 902 872.411 884.207 845.309C868.417 821.258 852.893 796.991 836.622 773.263C822.709 752.973 807.544 733.018 788.5 717.238C764.421 697.286 735.749 687.887 705.8 680.553C702.529 677.158 698.16 675.304 693.49 675.68C686.892 668.197 681.648 662.97 679.271 653.454C678.132 648.896 678.489 636.089 674.05 633.392C668.777 630.188 666.023 634.429 664.569 639.208C659.704 655.198 665.288 676.696 678.138 692.713C672.724 711.424 665.546 738.016 652.741 753.006C639.029 769.057 620.066 774.053 599.606 774.382C560.588 775.01 521.611 760.509 491.85 735.377C482.804 727.739 474.403 719.208 466.802 710.135C461.101 703.328 454.357 692.823 449.897 684.883C449.897 681.789 446.243 678.553 483.437 676.053C520.63 673.553 523.451 622.626 524.278 615.695C524.95 610.067 527.808 601.331 523.842 596.742C522.159 594.793 518.705 594.479 516.571 595.803C512.547 598.302 511.225 604.692 509.96 609.031C508.188 615.11 502.395 652.837 491.418 657.205C486.279 659.25 480.385 659.288 474.949 659.666C468.236 660.135 461.509 660.478 454.823 661.259C452.357 661.547 449.667 662.345 447.234 662.368C445.651 662.383 444.018 661.614 442.488 661.074C437.324 659.249 432.164 660.618 426.844 661.333C379.808 667.654 331.377 682.081 291.257 708.04C255.895 730.92 230.982 763.825 214.543 802.297C197.77 841.559 188.156 884.016 180.099 925.812C177.4 939.816 175.043 953.885 173.018 968C171.061 981.64 168.613 995.59 168.027 1009.37C167.795 1014.82 169.098 1019.89 171.103 1024.87C173.361 1030.47 178.698 1032.68 183.817 1035.3C195.054 1041.05 206.908 1045.5 219.121 1048.66C226.582 1062.23 232.861 1076.34 237.907 1090.97C236.035 1094.68 235.996 1100.22 235.636 1103.83C234.743 1112.8 234.361 1121.83 234.281 1130.85C234.12 1148.92 235.207 1166.98 236.059 1185.02C236.923 1203.33 239.795 1275.55 240.263 1284.37C240.627 1291.22 240.137 1300.8 243.746 1306.88C249.292 1316.23 262.98 1315.92 269.32 1308.34C426.844 1342.2 722.944 1332 842.199 1314.96C857.715 1312.75 852.843 1315.2 856.789 1311.28C859.75 1308.34 862.27 1303.3 863.089 1299.25C864.183 1293.84 862.417 1288.95 859.321 1284.57C856.066 1279.97 855.473 1272.52 854.264 1267.05C851.405 1254.12 849.984 1197.33 848.648 1191.04C848.232 1189.08 847.829 1187 847.343 1184.93C869.218 1187 892.011 1187 912.822 1179.68C924.623 1175.54 935.629 1169.02 944.101 1159.71C954.359 1148.45 960.066 1134.26 963.001 1119.46C966.788 1100.37 967.592 1080.59 966.848 1061.18C965.814 1038.25 962.01 1014.99 952.568 993.93C955.675 991.05 958.279 987.56 960.138 983.8Z" fill="black"/>
<path fill-rule="evenodd" clip-rule="evenodd" d="M756.528 442.003C754.375 423.088 757.161 383.552 757.348 381.15C758.528 365.965 751.413 306.002 737.963 311.527C715.401 293.666 685.35 289.722 657.25 287.838C598.883 283.924 536.79 292.909 491.72 332.189C469.431 352.588 447.732 382.257 449.476 413.149C429.225 442.431 400.676 482.598 425.908 516.831C434.484 527.768 448.116 531.841 458.89 540.124C480.562 557.604 494.158 582.69 516.035 600.066C573.996 652.149 672.413 663.029 729.359 603.789C773.394 560.885 766.274 496.699 758.528 442.003C753.321 405.23 760.728 478.904 756.528 442.003Z" fill="white"/>
<path fill-rule="evenodd" clip-rule="evenodd" d="M579.279 207.625C594.889 204.475 610.918 202.515 626.859 203.105L628.088 203.153C640.082 203.632 655.273 204.693 665.736 211.667C666.338 211.063 667.306 210.753 668.184 211.172C680.618 217.107 694.293 221.398 707.385 225.662C720.417 229.905 733.937 232.706 747.596 233.835C752.735 234.26 757.133 239.809 753.879 244.786C753.105 245.972 752.351 247.17 751.6 248.371C752.856 248.24 754.112 248.105 755.368 247.978C759.501 247.562 763.63 251.973 763.385 255.997C763.232 258.528 762.96 261.029 762.556 263.5C764.13 263.467 765.694 263.703 767.206 264.342C774.862 267.575 774.33 276.694 773.757 283.632C772.963 293.26 769.362 303.458 762.676 310.664C767.668 315.849 771.201 322.041 773.309 329.395C774.838 334.765 775.69 340.485 775.27 346.075L775.135 347.749C774.616 353.815 773.583 360.531 769.219 364.895C766.979 367.145 764.219 367.965 761.588 367.705C763.179 381.685 764.199 395.745 765.159 409.755L765.609 416.451C767.751 448.831 769.36 481.422 768.939 513.855C768.548 544.165 762.559 573.585 743.969 598.195C727.038 620.605 702.729 637.125 675.229 643.405C660.409 646.795 645.279 647.035 630.279 644.875C623.008 643.825 615.689 642.215 608.788 639.675C601.149 636.855 595.659 632.705 590.519 626.485C588.088 623.535 589.258 617.255 594.099 617.845C601.42 618.733 608.104 619.803 615.123 621.968L616.128 622.285C623.119 624.525 630.359 626.195 637.668 626.905C652.639 628.355 667.838 626.895 682.179 622.355C705.529 614.955 725.64 598.465 738.53 577.745C753.83 553.185 755.559 525.305 755.338 497.065C755.101 466.077 754.093 435.07 752.448 404.114L752.168 398.955C751.298 383.025 750.458 367.085 749.719 351.145C749.489 346.145 749.139 341.105 748.508 336.115C742.739 332.735 737.569 328.075 734.199 322.325C727.429 325.125 720.309 327.145 713.758 328.755C698.584 332.487 682.83 333.393 667.385 331.056C663.219 332.777 658.97 334.29 654.656 335.592C653.49 336.109 652.324 336.617 651.159 337.115C640.758 341.565 630.208 345.335 619.229 348.095L616.532 348.768C610.754 350.192 604.478 351.595 598.329 352.035C597.319 352.425 596.229 352.755 595.038 353.045C589.439 354.405 583.628 354.835 577.889 354.355C572.298 353.885 568.258 348.235 571.338 342.945C573.588 339.085 575.859 335.235 578.149 331.395C570.179 334.715 561.949 337.475 553.649 339.815C545.269 342.175 536.769 344.165 528.258 345.995C523.708 346.965 519.139 347.825 514.599 348.795C511.349 349.485 506.359 349.845 503.708 351.985C500.779 354.335 499.949 359.815 498.838 363.195C497.378 367.585 496.008 371.995 494.758 376.455C492.269 385.355 490.229 394.385 488.649 403.505C487.069 412.635 486.008 421.855 485.418 431.105C484.829 440.345 485.088 449.645 484.139 458.845C483.628 463.725 478.389 466.235 474.519 462.825C474.065 462.425 473.607 462.021 473.154 461.612L472.479 460.995C469.168 457.995 465.958 454.815 463.309 451.235C462.829 450.575 462.369 449.885 461.939 449.185C461.869 449.185 461.809 449.165 461.739 449.115L461.004 448.562C452.917 442.543 439.405 434.694 431.519 444.695C429.006 447.881 427.719 451.938 426.652 455.851L424.778 462.856C423.566 467.428 422.425 472.026 421.758 476.705C420.248 487.185 421.008 499.265 428.219 507.665C431.099 511.025 435.069 513.425 439.498 514.055C441.969 514.395 444.409 513.975 446.859 513.665C449.349 513.355 451.748 513.855 454.239 513.615C458.199 513.225 459.929 517.965 458.449 520.945C457.649 522.545 456.708 523.925 455.639 525.095C456.498 525.835 457.319 526.635 458.109 527.475C460.449 528.225 462.548 529.835 464.119 531.965C465.389 533.685 466.048 535.555 466.159 537.525C466.298 538.015 466.418 538.515 466.529 539.025L468.674 542.507C469.146 543.271 469.616 544.025 470.088 544.765C475.548 553.365 481.609 560.645 489.139 567.505C496.389 574.105 504.258 580.015 511.069 587.095L511.871 587.936C518.221 594.627 524.914 602.726 522.429 612.455C521.789 614.955 518.298 616.755 516.019 615.065C508.689 609.625 504.999 601.005 498.78 594.405C492.379 587.605 485.288 581.495 478.869 574.715C472.798 568.315 468.008 561.065 464.399 553.085C462.958 554.675 460.859 555.805 457.949 556.245C452.949 556.995 448.288 554.065 446.109 549.735C444.708 550.355 443.279 550.915 441.838 551.355C434.258 553.675 429.489 545.245 432.349 539.015C433.878 535.675 435.788 532.775 438.159 530.335C430.748 529.315 423.208 525.485 418.338 520.705C406.119 508.695 404.439 490.645 407.189 474.595C408.649 466.085 411.168 457.475 414.439 449.485C415.008 448.095 415.619 446.695 416.288 445.315C415.918 445.305 415.538 445.145 415.298 444.835C413.088 441.815 410.399 439.345 408.758 435.965C407.248 432.865 405.569 429.725 404.378 426.495C401.929 419.885 400.729 412.425 399.929 405.435C398.279 391.125 398.918 376.905 401.109 362.685C404.838 338.465 413.846 315.287 427.117 294.949C426.394 294.569 425.702 294.111 425.057 293.569L424.738 293.291L424.22 292.823C420.433 289.396 420.76 282.973 424.22 279.502L425.313 278.407C426.696 277.032 427.89 275.943 430.125 274.446C430.455 274.225 430.792 274.017 431.133 273.823C429.963 271.661 429.557 269.133 430.372 266.344C433.212 256.628 447.192 256.972 456.053 261.209C465.856 252.46 476.726 244.865 488.508 238.715C516.569 224.075 548.298 213.865 579.279 207.625ZM434.229 463.525C439.469 461.815 446.429 465.405 451.139 467.565C457.109 470.305 462.189 474.355 467.109 478.635C469.559 480.775 469.998 484.275 469.389 487.265C469.328 487.565 469.269 487.875 469.198 488.185C468.548 491.375 464.988 493.885 461.838 493.795C455.248 493.615 452.109 487.925 448.378 483.105C447.939 483.885 447.389 484.605 446.708 485.145L446.248 485.505C444.7 486.684 442.994 487.626 440.948 487.535C439.498 487.465 438.109 487.095 436.828 486.425C433.628 484.735 432.219 480.595 433.088 477.225C433.628 475.105 434.868 473.445 436.488 472.295L435.884 471.882C434.592 470.983 433.414 470.035 432.495 468.636L432.288 468.305H432.368C431.368 466.585 432.019 464.245 434.229 463.525Z" fill="black"/>
<path fill-rule="evenodd" clip-rule="evenodd" d="M656.586 564.927C649.863 562.184 643.865 557.61 639.48 551.766C637.956 549.735 637.56 547.59 637.88 545.628C638.24 543.421 639.545 541.422 641.325 540.081C643.111 538.735 645.344 538.072 647.503 538.41C649.38 538.704 651.247 539.731 652.726 541.862L653.034 542.288C655.641 545.815 659.039 548.709 662.909 550.574C666.64 552.372 670.813 553.211 675.131 552.723C683.355 551.794 689.023 547.346 695.048 541.307C695.795 540.544 696.542 539.758 697.293 538.959C697.767 538.234 698.425 537.769 699.156 537.524C699.967 537.253 700.885 537.269 701.725 537.562C702.536 537.845 703.261 538.381 703.746 539.095C704.208 539.773 704.47 540.61 704.385 541.574C703.834 547.833 700.561 553.419 695.913 557.806C690.751 562.677 683.908 566.047 677.465 567.229C670.367 568.531 663.135 567.598 656.586 564.927ZM680.813 468.367C688.365 472.957 699.871 483.66 691.747 495.04C682.185 505.073 668.417 493.569 661.633 488.366C655.342 484.334 648.274 494.705 654.111 499.413C703.135 535.708 723.03 469.567 684.633 462.97C680.405 462.243 678.835 466.947 680.813 468.367ZM592.962 426.146C593.797 415.79 609.569 413.438 611.138 423.686C612.543 432.866 610.889 441.299 606.754 449.564C602.803 457.46 592.873 453.777 592.122 446.587C591.115 436.949 592.443 432.589 592.962 426.146ZM713.026 421.562C715.225 418.682 718.4 416.716 722.204 417.826C734.089 421.3 730.586 438.173 726.412 446.386C724.144 450.846 716.813 451.977 713.5 448.049C708.1 441.646 705.514 428.857 712.379 422.549C712.565 422.223 712.772 421.894 713.026 421.562ZM606.587 380.831L608.464 380.502C614.272 379.497 621.493 378.532 625.602 383.202C627.781 385.678 628.531 390.28 625.602 392.65C620.45 396.82 614.754 395.204 608.58 395.557C603.492 395.849 598.602 396.691 593.701 398.092C582.949 401.165 574.188 406.775 565.005 412.935C563.8 413.743 562.57 412.202 563.145 411.075C568.446 400.692 578.719 392.163 589.009 386.964C594.501 384.189 600.511 381.887 606.587 380.831ZM702.192 376.179L703.629 376.473C719.266 379.742 739.582 386.271 746.987 401.631C747.27 403.803 746.971 404.268 746.729 404.572L746.648 404.674C746.449 404.933 746.289 405.291 745.348 405.587C745.086 405.525 744.823 405.459 744.556 405.389C741.162 404.499 738.476 403.274 735.876 402.002L733.057 400.613C729.787 399.01 726.487 397.465 722.991 396.324C715.529 393.89 707.853 392.175 700.059 391.26C698.369 391.062 696.743 390.491 695.459 389.514C694.241 388.587 693.31 387.302 692.886 385.596C692.336 383.386 692.494 381.714 693.679 379.721C694.571 378.224 695.846 377.187 697.31 376.591C698.803 375.984 700.502 375.841 702.192 376.179Z" fill="black"/>
</g>
<defs>
<clipPath id="clip0_1952_33">
<rect width="1136" height="1136" rx="568" fill="white"/>
</clipPath>
</defs>
</svg>
